<svg width="24" height="24" viewBox="0 0 24 24" fill="none" xmlns="http://www.w3.org/2000/svg">
<path fill-rule="evenodd" clip-rule="evenodd" d="M15.6978 14H14.8953L14.6109 13.73C15.6064 12.59 16.2057 11.11 16.2057 9.5C16.2057 5.91 13.2497 3 9.60285 3C5.95604 3 3 5.91 3 9.5C3 13.09 5.95604 16 9.60285 16C11.2383 16 12.7417 15.41 13.8998 14.43L14.1741 14.71V15.5L19.2532 20.49L20.7667 19L15.6978 14ZM9.60285 14C7.07345 14 5.03165 11.99 5.03165 9.5C5.03165 7.01 7.07345 5 9.60285 5C12.1322 5 14.1741 7.01 14.1741 9.5C14.1741 11.99 12.1322 14 9.60285 14Z" fill="#A9A9A9"/>
</svg>
