<svg width="529" height="381" viewBox="0 0 529 381" fill="none" xmlns="http://www.w3.org/2000/svg">
<g clip-path="url(#clip0)">
<path d="M464.058 185.582H459.349V371.108H464.058V185.582Z" fill="#3F3D56"/>
<path d="M507.517 209.225C507.816 274.099 462.057 326.901 462.057 326.901C462.057 326.901 415.811 274.522 415.511 209.648C415.212 144.775 460.971 91.9725 460.971 91.9725C460.971 91.9725 507.217 144.352 507.517 209.225Z" fill="#3F3D56"/>
<path d="M369.904 272.875H367.482V368.295H369.904V272.875Z" fill="#3F3D56"/>
<path d="M392.255 285.035C392.409 318.401 368.874 345.558 368.874 345.558C368.874 345.558 345.089 318.619 344.935 285.252C344.781 251.886 368.316 224.729 368.316 224.729C368.316 224.729 392.101 251.669 392.255 285.035Z" fill="#3F3D56"/>
<path d="M417.641 381C453.881 381 483.259 376.508 483.259 370.968C483.259 365.427 453.881 360.935 417.641 360.935C381.401 360.935 352.023 365.427 352.023 370.968C352.023 376.508 381.401 381 417.641 381Z" fill="#3F3D56"/>
<path d="M423.053 137.148C417.494 127.779 406.495 127.342 406.495 127.342C406.495 127.342 395.778 125.975 388.902 140.245C382.494 153.546 373.65 166.387 387.479 169.501L389.976 161.747L391.523 170.078C393.492 170.22 395.467 170.253 397.44 170.179C412.249 169.702 426.353 170.319 425.899 165.018C425.295 157.972 428.402 146.164 423.053 137.148Z" fill="#2F2E41"/>
<path d="M403.033 154.793C403.033 154.793 410.217 164.825 405.906 172.947C401.596 181.068 415.965 189.668 415.965 189.668L426.502 166.736C426.502 166.736 414.049 158.615 417.402 150.971L403.033 154.793Z" fill="#FBBEBE"/>
<path d="M407.822 159.093C414.7 159.093 420.275 153.531 420.275 146.672C420.275 139.812 414.7 134.25 407.822 134.25C400.945 134.25 395.369 139.812 395.369 146.672C395.369 153.531 400.945 159.093 407.822 159.093Z" fill="#FBBEBE"/>
<path d="M364.725 161.03L375.132 147.638C375.132 147.638 378.797 133.599 384.104 134.311C389.411 135.023 382.008 151.146 382.008 151.146L371.667 165.971L364.725 161.03Z" fill="#FBBEBE"/>
<path d="M417.402 339.198L420.754 356.874L427.939 358.785L426.023 337.765L417.402 339.198Z" fill="#FBBEBE"/>
<path d="M489.725 320.089L502.657 337.765L507.926 340.154L512.236 332.988L499.304 316.267L489.725 320.089Z" fill="#FBBEBE"/>
<path d="M414.528 182.024L406.538 171.533C406.538 171.533 391.059 174.38 389.622 175.813C388.185 177.246 393.453 203.522 393.453 203.522C393.453 203.522 394.411 210.688 398.722 214.51L403.033 217.376L438.476 210.21L439.809 194.48C440.294 188.751 439.574 182.984 437.695 177.548C435.816 172.112 432.819 167.128 428.897 162.914L422.73 163.755L414.528 182.024Z" fill="#575A89"/>
<path d="M391.537 176.769L389.143 175.813L378.126 174.858C378.126 174.858 374.295 173.902 375.253 171.991C376.211 170.08 377.169 169.603 375.253 169.125C373.337 168.647 372.858 168.17 373.337 166.736C373.816 165.303 376.69 162.437 376.69 162.437L368.547 155.748C368.547 155.748 368.107 156.059 367.394 156.635C363.352 159.899 350.56 171.678 359.926 183.457C370.942 197.311 383.874 205.433 394.411 202.566L391.537 176.769Z" fill="#575A89"/>
<path d="M402.075 214.987V221.676C402.075 221.676 397.764 229.797 399.201 237.441C400.638 245.085 401.117 248.907 401.117 248.907C401.273 255.407 402.403 261.848 404.47 268.016C407.822 277.571 396.806 340.154 410.696 341.109C424.586 342.065 432.249 343.02 436.56 338.243C440.871 333.465 429.376 251.295 429.376 251.295C429.376 251.295 468.651 332.988 476.793 329.644C484.935 326.299 505.531 318.656 503.136 314.356C500.741 310.057 440.392 214.51 440.392 214.51L438.476 210.21L402.075 214.987Z" fill="#2F2E41"/>
<path d="M425.065 353.53C425.065 353.53 417.402 353.053 417.402 355.441C417.402 357.83 413.57 365.951 413.57 365.951C413.57 365.951 410.696 375.506 418.359 374.551C426.023 373.595 430.812 364.996 430.812 364.996L428.897 355.919L425.065 353.53Z" fill="#2F2E41"/>
<path d="M505.052 336.81C505.052 336.81 498.346 332.51 498.825 335.376C499.304 338.243 499.783 345.887 503.136 346.364C506.489 346.842 516.547 349.708 517.026 350.664C517.505 351.619 529 355.441 529 349.231C529 343.02 521.815 338.243 521.815 338.243L513.673 332.032C513.673 332.032 508.405 331.554 507.447 334.899C506.489 338.243 505.052 336.81 505.052 336.81Z" fill="#2F2E41"/>
<path d="M407.841 135.322C412.233 135.322 415.794 131.771 415.794 127.39C415.794 123.009 412.233 119.458 407.841 119.458C403.449 119.458 399.889 123.009 399.889 127.39C399.889 131.771 403.449 135.322 407.841 135.322Z" fill="#2F2E41"/>
<path d="M399.051 125.302C399.052 123.343 399.779 121.454 401.092 119.997C402.406 118.541 404.214 117.621 406.167 117.415C405.889 117.385 405.609 117.371 405.33 117.37C403.221 117.37 401.198 118.206 399.706 119.694C398.215 121.181 397.377 123.199 397.377 125.302C397.377 127.406 398.215 129.424 399.706 130.911C401.198 132.399 403.221 133.235 405.33 133.235C405.609 133.234 405.889 133.219 406.167 133.19C404.214 132.984 402.406 132.064 401.092 130.608C399.779 129.151 399.052 127.262 399.051 125.302Z" fill="#2F2E41"/>
<path d="M420.595 136.245L409.729 130.568L394.723 132.891L391.619 146.567L399.347 146.271L401.506 141.246V146.188L405.072 146.051L407.142 138.052L408.436 146.567L421.113 146.309L420.595 136.245Z" fill="#2F2E41"/>
<path d="M419.945 216.094L403.187 216.546C403.187 216.546 388.888 219.321 389.69 213.565C390.492 207.808 404.442 209.822 404.442 209.822L419.712 207.498L419.945 216.094Z" fill="#FBBEBE"/>
<path d="M433.203 162.105C434.045 161.977 434.906 162.154 435.629 162.603C436.352 163.053 436.891 163.744 437.148 164.554C440.428 174.866 450.535 209.372 440.493 214.106C428.666 219.682 420.035 219.437 420.035 219.437L415.415 208.092L419.621 204.155L424.111 175.36L426.262 163.153L433.203 162.105Z" fill="#575A89"/>
<path opacity="0.4" d="M430.094 181.307L428.178 200.417L411.415 207.583L430.094 203.283V181.307Z" fill="black"/>
<path d="M339.688 118.221C345.087 119.648 349.759 123.033 352.789 127.714L354.355 130.134L354.434 130.234L381.919 138.256C382.423 138.403 382.849 138.741 383.105 139.198C383.362 139.655 383.428 140.194 383.29 140.699L381.156 148.503C381.086 148.757 380.967 148.995 380.805 149.203C380.643 149.411 380.441 149.585 380.211 149.715C379.982 149.845 379.728 149.929 379.466 149.961C379.204 149.993 378.938 149.973 378.684 149.902L351.191 142.237L351.191 142.238L348.43 143.279C343.345 145.196 337.769 145.385 332.565 143.817L339.688 118.221Z" fill="#3F3D56"/>
<path d="M368.633 140.853C368.893 139.966 367.752 138.852 366.084 138.365C364.416 137.878 362.852 138.203 362.592 139.09C362.332 139.978 363.473 141.092 365.141 141.578C366.809 142.065 368.372 141.741 368.633 140.853Z" fill="#575A89"/>
<path d="M367.229 141.671C367.866 141.671 368.383 141.156 368.383 140.521C368.383 139.885 367.866 139.37 367.229 139.37C366.592 139.37 366.075 139.885 366.075 140.521C366.075 141.156 366.592 141.671 367.229 141.671Z" fill="#3F3D56"/>
<path d="M341.986 133.003C344.277 125.953 343.544 119.399 340.348 118.365C337.152 117.332 332.702 122.209 330.41 129.259C328.119 136.309 328.852 142.862 332.048 143.896C335.244 144.93 339.694 140.053 341.986 133.003Z" fill="#7CD4FF"/>
<path opacity="0.4" d="M341.131 132.753C343.34 125.96 342.739 119.629 339.833 118.252C340.008 118.273 340.18 118.312 340.348 118.365C343.544 119.399 344.277 125.953 341.985 133.003C339.693 140.053 335.244 144.93 332.048 143.896C331.932 143.858 331.819 143.813 331.709 143.761C334.853 144.16 338.96 139.432 341.131 132.753Z" fill="black"/>
<path d="M340.049 118.246L277.67 69.9832C266.639 61.387 256.054 52.2369 245.955 42.5682C228.174 25.6622 204.035 12.1457 175.93 4.94934C107.649 -12.5346 53.5557 18.4666 28.9527 63.9869C-8.64332 133.547 -37.4557 246.424 129.245 186.339C165.702 173.199 202.605 171.802 230.587 164.881L331.907 144.044L340.049 118.246Z" fill="#7CD4FF"/>
<path d="M152.774 37.0316C154.626 37.0316 156.127 35.5344 156.127 33.6875C156.127 31.8405 154.626 30.3433 152.774 30.3433C150.923 30.3433 149.422 31.8405 149.422 33.6875C149.422 35.5344 150.923 37.0316 152.774 37.0316Z" fill="#F2F2F2"/>
<path d="M217.904 41.4172H217.031V40.5467H216.861V41.4172H215.988V41.5872H216.861V42.4577H217.031V41.5872H217.904V41.4172Z" fill="#F2F2F2"/>
<path d="M305.554 114.033H304.682V113.162H304.511V114.033H303.638V114.203H304.511V115.073H304.682V114.203H305.554V114.033Z" fill="#F2F2F2"/>
<path d="M299.328 136.486H298.455V135.616H298.285V136.486H297.412V136.656H298.285V137.527H298.455V136.656H299.328V136.486Z" fill="#F2F2F2"/>
<path d="M31.5871 155.596H30.7144V154.725H30.5439V155.596H29.6713V155.766H30.5439V156.636H30.7144V155.766H31.5871V155.596Z" fill="#F2F2F2"/>
<path d="M69.9043 51.4496H69.0316V50.5791H68.8611V51.4496H67.9884V51.6196H68.8611V52.4901H69.0316V51.6196H69.9043V51.4496Z" fill="#F2F2F2"/>
<path d="M218.862 140.308H217.989V139.438H217.819V140.308H216.946V140.478H217.819V141.349H217.989V140.478H218.862V140.308Z" fill="#F2F2F2"/>
<path d="M127.38 20.8746H126.507V20.0042H126.337V20.8746H125.464V21.0447H126.337V21.9151H126.507V21.0447H127.38V20.8746Z" fill="#F2F2F2"/>
<path d="M127.715 89.6578L126.628 89.825C126.968 91.9939 127.236 94.2106 127.433 96.4034L128.529 96.3078C128.333 94.0864 128.06 91.8506 127.715 89.6578Z" fill="#E6E6E6"/>
<path d="M124.741 76.5965L123.687 76.9166C124.324 79.0186 124.894 81.1732 125.378 83.3182L126.456 83.0746C125.962 80.9057 125.383 78.7272 124.741 76.5965Z" fill="#E6E6E6"/>
<path d="M119.994 64.0703L118.993 64.5289C119.913 66.5306 120.775 68.5849 121.556 70.6392L122.586 70.2522C121.795 68.174 120.928 66.0911 119.994 64.0703Z" fill="#E6E6E6"/>
<path d="M113.576 52.3276L112.647 52.9152C113.83 54.7688 114.965 56.6893 116.019 58.6146L116.986 58.0891C115.923 56.14 114.774 54.2003 113.576 52.3276Z" fill="#E6E6E6"/>
<path d="M105.597 41.5643L104.759 42.2761C106.186 43.9482 107.575 45.6967 108.887 47.4643L109.769 46.8098C108.447 45.0231 107.043 43.2554 105.597 41.5643Z" fill="#E6E6E6"/>
<path d="M96.2187 31.981L95.4858 32.7979C97.1335 34.2645 98.7476 35.8076 100.285 37.3794L101.075 36.6102C99.5187 35.0193 97.8854 33.4619 96.2187 31.981Z" fill="#E6E6E6"/>
<path d="M85.624 23.7544L85.0061 24.6621C86.8357 25.8898 88.6462 27.1988 90.3849 28.5508L91.065 27.6861C89.3024 26.3198 87.4728 24.9965 85.624 23.7544Z" fill="#E6E6E6"/>
<path d="M75.9824 18.0407V19.2828C77.1271 19.88 78.2623 20.5058 79.3735 21.1459L79.9243 20.1953C78.6311 19.45 77.3171 18.7318 75.9824 18.0407Z" fill="#E6E6E6"/>
<path d="M127.789 103.18L128.89 103.16C128.911 104.269 128.912 105.384 128.895 106.474L127.794 106.457C127.811 105.379 127.809 104.277 127.789 103.18Z" fill="#E6E6E6"/>
<path d="M63.0553 183.771L61.968 183.939C62.3081 186.107 62.5763 188.324 62.7727 190.517L63.8695 190.421C63.6731 188.2 63.4001 185.964 63.0553 183.771Z" fill="#E6E6E6"/>
<path d="M60.0808 170.71L59.0271 171.03C59.6641 173.132 60.2341 175.287 60.7179 177.432L61.7955 177.188C61.3022 175.019 60.7227 172.841 60.0808 170.71Z" fill="#E6E6E6"/>
<path d="M55.3344 158.184L54.3334 158.643C55.253 160.644 56.1151 162.698 56.8958 164.753L57.9256 164.366C57.1353 162.288 56.2684 160.205 55.3344 158.184Z" fill="#E6E6E6"/>
<path d="M48.9161 146.441L47.9869 147.029C49.17 148.882 50.3051 150.803 51.3588 152.728L52.3263 152.203C51.2631 150.254 50.1135 148.314 48.9161 146.441Z" fill="#E6E6E6"/>
<path d="M40.9367 135.678L40.0985 136.39C41.5258 138.062 42.9148 139.81 44.2272 141.578L45.1085 140.923C43.7865 139.137 42.3831 137.369 40.9367 135.678Z" fill="#E6E6E6"/>
<path d="M31.5585 126.095L30.8257 126.911C32.4733 128.378 34.0874 129.921 35.6249 131.493L36.4152 130.724C34.8586 129.133 33.2253 127.576 31.5585 126.095Z" fill="#E6E6E6"/>
<path d="M20.9638 117.868L20.3459 118.776C22.1756 120.003 23.9861 121.312 25.7247 122.664L26.4048 121.8C24.6422 120.433 22.8126 119.11 20.9638 117.868Z" fill="#E6E6E6"/>
<path d="M11.3223 112.154V113.396C12.467 113.994 13.6021 114.619 14.7133 115.26L15.2641 114.309C13.9709 113.564 12.657 112.845 11.3223 112.154Z" fill="#E6E6E6"/>
<path d="M63.1294 197.294L64.2304 197.274C64.2506 198.383 64.2521 199.498 64.2349 200.588L63.134 200.57C63.1507 199.493 63.1493 198.39 63.1294 197.294Z" fill="#E6E6E6"/>
<path d="M284.336 136.476L283.249 136.643C283.589 138.812 283.857 141.028 284.054 143.221L285.15 143.126C284.954 140.904 284.681 138.668 284.336 136.476Z" fill="#E6E6E6"/>
<path d="M281.362 123.414L280.308 123.735C280.945 125.837 281.515 127.991 281.999 130.136L283.077 129.892C282.583 127.724 282.004 125.545 281.362 123.414Z" fill="#E6E6E6"/>
<path d="M276.615 110.888L275.614 111.347C276.534 113.349 277.396 115.403 278.177 117.457L279.206 117.07C278.416 114.992 277.549 112.909 276.615 110.888Z" fill="#E6E6E6"/>
<path d="M270.197 99.1456L269.268 99.7332C270.451 101.587 271.586 103.507 272.64 105.433L273.607 104.907C272.544 102.958 271.395 101.018 270.197 99.1456Z" fill="#E6E6E6"/>
<path d="M262.218 88.3822L261.38 89.0941C262.807 90.7661 264.196 92.5146 265.508 94.2822L266.39 93.6277C265.068 91.841 263.664 90.0734 262.218 88.3822Z" fill="#E6E6E6"/>
<path d="M252.839 78.7989L252.107 79.6158C253.754 81.0824 255.368 82.6255 256.906 84.1973L257.696 83.4281C256.14 81.8372 254.506 80.2798 252.839 78.7989Z" fill="#E6E6E6"/>
<path d="M242.245 70.5723L241.627 71.48C243.457 72.7077 245.267 74.0167 247.006 75.3687L247.686 74.504C245.923 73.1377 244.094 71.8144 242.245 70.5723Z" fill="#E6E6E6"/>
<path d="M232.603 64.8586V66.1007C233.748 66.6979 234.883 67.3237 235.994 67.9639L236.545 67.0132C235.252 66.2679 233.938 65.5497 232.603 64.8586Z" fill="#E6E6E6"/>
<path d="M284.41 149.998L285.511 149.978C285.532 151.087 285.533 152.202 285.516 153.292L284.415 153.275C284.432 152.197 284.43 151.095 284.41 149.998Z" fill="#E6E6E6"/>
<path d="M71.5068 95.4966H70.695V94.6864H70.5364V95.4966H69.7241V95.6543H70.5364V96.4645H70.695V95.6543H71.5068V95.4966Z" fill="#F2F2F2"/>
<path d="M62.1474 144.396H61.3356V143.586H61.1771V144.396H60.3647V144.554H61.1771V145.364H61.3356V144.554H62.1474V144.396Z" fill="#F2F2F2"/>
<path d="M34.685 187.252H33.8727V186.442H33.7142V187.252H32.9023V187.41H33.7142V188.22H33.8727V187.41H34.685V187.252Z" fill="#F2F2F2"/>
<path d="M111.081 132.897C103.229 121.256 99.8195 107.193 101.471 93.2596C103.123 79.326 109.726 66.444 120.083 56.9498C130.44 47.4556 143.865 41.9778 157.924 41.5098C171.983 41.0418 185.745 45.6146 196.714 54.3989C207.682 63.1832 215.132 75.5974 217.711 89.3902C220.29 103.183 217.829 117.441 210.773 129.579C203.716 141.717 192.533 150.93 179.25 155.549C165.967 160.168 151.465 159.886 138.373 154.754C137.524 157.776 135.937 160.541 133.755 162.801C131.572 165.061 128.861 166.746 125.866 167.705C122.87 168.664 119.682 168.867 116.589 168.296C113.495 167.725 110.592 166.398 108.138 164.433C105.685 162.468 103.759 159.927 102.531 157.038C101.304 154.148 100.814 151.001 101.106 147.876C101.397 144.751 102.461 141.747 104.202 139.133C105.942 136.52 108.306 134.377 111.081 132.897Z" fill="#3F3D56"/>
<path d="M159.556 66.6138C173.041 66.6138 182.318 74.0741 182.318 84.7983C182.318 91.9 178.866 96.8138 172.214 100.723C165.957 104.346 163.835 107 163.835 111.591C163.835 111.963 163.762 112.332 163.619 112.675C163.476 113.019 163.267 113.331 163.003 113.595C162.74 113.858 162.426 114.066 162.082 114.209C161.737 114.351 161.368 114.424 160.995 114.424H154.101C153.365 114.424 152.657 114.139 152.127 113.629C151.598 113.119 151.287 112.424 151.262 111.69L151.25 111.34C150.638 103.951 153.227 99.3603 159.736 95.5585C165.813 91.9359 168.366 89.6404 168.366 85.1929C168.366 80.7454 164.051 77.4815 158.693 77.4815C154.621 77.4815 151.398 79.4587 149.92 82.6867C149.4 83.7794 148.578 84.7009 147.55 85.3421C146.522 85.9833 145.331 86.3173 144.118 86.3048C139.448 86.3048 136.362 81.3504 138.546 77.2324C142.002 70.7182 149.293 66.6138 159.556 66.6138ZM150.099 128.09C150.099 123.965 153.551 120.701 157.794 120.701C162.073 120.701 165.525 123.929 165.525 128.09C165.525 132.25 162.073 135.478 157.794 135.478C153.515 135.478 150.099 132.25 150.099 128.09Z" fill="#7CD4FF"/>
</g>
<defs>
<clipPath id="clip0">
<rect width="529" height="381" fill="white"/>
</clipPath>
</defs>
</svg>
